<svg width="108" height="108" viewBox="0 0 108 108" fill="none" xmlns="http://www.w3.org/2000/svg">
<g clip-path="url(#clip0_3_2)" filter="url(#filter0_d_3_2)">
<rect x="4" width="100" height="100" rx="12" fill="#927D73"/>
<g filter="url(#filter1_d_3_2)">
<path d="M74 41.5799C73.9778 43.0956 73.5134 44.5709 72.6652 45.8202C71.817 47.0695 70.6229 48.0371 69.233 48.6014L58.0429 52.2206L57.8897 38.7098C57.8617 35.4651 56.5781 32.3031 54.9933 31.6651C49.8282 29.5571 44.6478 27.4826 39.5032 25.3204C39.0899 25.0764 38.7504 24.7225 38.5215 24.2973C38.2925 23.872 38.1828 23.3914 38.2043 22.9076C38.2068 22.2049 38.485 21.5332 38.9775 21.0372C39.271 20.8796 39.5797 20.7505 39.8962 20.6523L68.9344 11.218C71.6165 10.3629 73.8086 12.0989 73.8086 15.1033L74 41.5799ZM56.0855 68.1778C56.1136 71.4225 54.8479 73.5331 53.2733 72.8821C47.4371 70.5158 41.6238 68.0538 35.7825 65.7185C33.8048 64.4036 33.2331 63.0758 33.2331 58.8649L33.0188 30.3011C32.9307 28.78 33.1531 27.2569 33.6721 25.8267C34.2127 24.3644 35.2134 23.1226 36.52 22.2927C36.6808 22.1791 36.8492 22.0731 37.0202 21.9801C36.5225 22.471 36.2444 23.1452 36.2469 23.8479C36.1984 24.8321 36.6935 25.7621 37.5331 26.2607L40.4168 27.4671L53.036 32.6674C54.608 33.3184 55.9324 36.4649 55.9324 39.7095C56.0013 49.1981 56.0422 58.6893 56.0855 68.1778Z" fill="#EB5D1F"/>
</g>
<line opacity="0.7" x1="59.8419" y1="40.5257" x2="71.8419" y2="36.5257" stroke="#927D73"/>
<line opacity="0.7" x1="59.8419" y1="43.5257" x2="71.8419" y2="39.5257" stroke="#927D73"/>
<line opacity="0.7" x1="59.8419" y1="46.5257" x2="71.8419" y2="42.5257" stroke="#927D73"/>
<line opacity="0.7" x1="36.1857" y1="41.5358" x2="51.1857" y2="47.5358" stroke="#927D73"/>
<line opacity="0.7" x1="36.1857" y1="37.5358" x2="51.1857" y2="43.5358" stroke="#927D73"/>
<g filter="url(#filter2_d_3_2)">
<path d="M24.42 90.014C24.4013 89.874 24.4013 89.7247 24.42 89.566C24.868 89.5193 25.19 89.4773 25.386 89.44C25.582 89.3933 25.7033 89.3 25.75 89.16C25.7967 89.02 25.82 88.782 25.82 88.446V81.936C25.82 81.544 25.7967 81.264 25.75 81.096C25.7033 80.928 25.582 80.8207 25.386 80.774C25.1993 80.718 24.8913 80.6713 24.462 80.634C24.4433 80.494 24.4433 80.3447 24.462 80.186C24.686 80.186 24.8727 80.1907 25.022 80.2C25.1807 80.2 25.344 80.2 25.512 80.2C25.68 80.2 25.89 80.2047 26.142 80.214C26.4033 80.214 26.7487 80.214 27.178 80.214C27.71 80.214 28.2513 80.214 28.802 80.214C29.3527 80.2047 29.8613 80.2 30.328 80.2C30.804 80.2 31.1867 80.2 31.476 80.2C31.7747 80.1907 31.9333 80.186 31.952 80.186C31.9987 80.5407 32.05 80.9093 32.106 81.292C32.162 81.6747 32.2227 82.0807 32.288 82.51C32.2133 82.5193 32.134 82.524 32.05 82.524C31.9753 82.524 31.9007 82.5193 31.826 82.51C31.5833 81.8847 31.2987 81.446 30.972 81.194C30.636 80.9233 30.1087 80.788 29.39 80.788H27.36V84.75H28.284C28.732 84.75 29.0727 84.722 29.306 84.666C29.5393 84.6007 29.712 84.4653 29.824 84.26C29.936 84.0453 30.0247 83.7093 30.09 83.252C30.258 83.224 30.4167 83.224 30.566 83.252C30.5567 83.644 30.5473 83.9567 30.538 84.19C30.538 84.414 30.538 84.5913 30.538 84.722C30.538 84.8527 30.538 84.974 30.538 85.086C30.538 85.1887 30.538 85.3053 30.538 85.436C30.538 85.5667 30.538 85.7487 30.538 85.982C30.5473 86.2153 30.5567 86.5327 30.566 86.934C30.426 86.962 30.2673 86.962 30.09 86.934C30.034 86.4393 29.95 86.0847 29.838 85.87C29.726 85.646 29.558 85.506 29.334 85.45C29.1193 85.394 28.8113 85.366 28.41 85.366H27.36V88.264C27.36 88.5533 27.3693 88.7773 27.388 88.936C27.4067 89.0947 27.4627 89.2207 27.556 89.314C27.6493 89.398 27.7893 89.454 27.976 89.482C28.172 89.51 28.452 89.538 28.816 89.566C28.844 89.7153 28.844 89.8647 28.816 90.014C28.62 90.014 28.382 90.0093 28.102 90C27.822 90 27.542 90 27.262 90C26.9913 89.9907 26.7627 89.986 26.576 89.986C26.3987 89.986 26.1793 89.9907 25.918 90C25.6567 90 25.3907 90 25.12 90C24.8587 90.0093 24.6253 90.014 24.42 90.014ZM36.3819 90.014C36.1206 90.014 35.8499 90.0093 35.5699 90C35.2899 89.9907 34.9866 89.986 34.6599 89.986C34.3612 89.986 34.0579 89.9907 33.7499 90C33.4512 90.0093 33.1619 90.014 32.8819 90.014C32.8539 89.8647 32.8539 89.72 32.8819 89.58C33.1992 89.5613 33.4326 89.5333 33.5819 89.496C33.7312 89.4493 33.8292 89.356 33.8759 89.216C33.9226 89.076 33.9459 88.852 33.9459 88.544V85.408C33.9459 85.044 33.9319 84.7733 33.9039 84.596C33.8759 84.4187 33.7872 84.2973 33.6379 84.232C33.4979 84.1573 33.2506 84.0967 32.8959 84.05C32.8679 83.9193 32.8679 83.798 32.8959 83.686C33.3066 83.6113 33.6986 83.518 34.0719 83.406C34.4452 83.294 34.8046 83.1727 35.1499 83.042L35.3879 83.126C35.3786 83.4153 35.3692 83.686 35.3599 83.938C35.3599 84.19 35.3599 84.428 35.3599 84.652V88.404C35.3599 88.768 35.3786 89.0293 35.4159 89.188C35.4626 89.3467 35.5559 89.4493 35.6959 89.496C35.8452 89.5333 36.0739 89.5613 36.3819 89.58C36.4099 89.72 36.4099 89.8647 36.3819 90.014ZM33.5819 80.662C33.5819 80.3913 33.6752 80.1627 33.8619 79.976C34.0579 79.7893 34.2912 79.696 34.5619 79.696C34.8232 79.696 35.0472 79.7893 35.2339 79.976C35.4299 80.1627 35.5279 80.3867 35.5279 80.648C35.5279 80.8907 35.4346 81.1147 35.2479 81.32C35.0612 81.516 34.8232 81.614 34.5339 81.614C34.2726 81.614 34.0486 81.5207 33.8619 81.334C33.6752 81.1473 33.5819 80.9233 33.5819 80.662ZM40.4678 90.014C40.1972 90.014 39.9218 90.0093 39.6418 90C39.3618 89.9907 39.0492 89.986 38.7038 89.986C38.3585 89.986 38.0505 89.9907 37.7798 90C37.5092 90.0093 37.2338 90.014 36.9538 90.014C36.9258 89.8647 36.9258 89.72 36.9538 89.58C37.2712 89.5613 37.5045 89.5333 37.6538 89.496C37.8032 89.4493 37.9012 89.356 37.9478 89.216C37.9945 89.076 38.0178 88.852 38.0178 88.544V81.53C38.0178 81.2407 37.9898 81.026 37.9338 80.886C37.8872 80.7367 37.7798 80.634 37.6118 80.578C37.4532 80.5127 37.2105 80.466 36.8838 80.438C36.8558 80.3167 36.8558 80.1907 36.8838 80.06C37.2572 80.0133 37.6398 79.9433 38.0318 79.85C38.4238 79.7473 38.8252 79.6073 39.2358 79.43L39.4738 79.514C39.4645 79.7193 39.4552 79.9527 39.4458 80.214C39.4458 80.4753 39.4458 80.76 39.4458 81.068V88.404C39.4458 88.768 39.4645 89.0293 39.5018 89.188C39.5485 89.3467 39.6418 89.4493 39.7818 89.496C39.9312 89.5333 40.1598 89.5613 40.4678 89.58C40.4865 89.72 40.4865 89.8647 40.4678 90.014ZM44.3877 90.168C43.7251 90.168 43.1651 90.014 42.7077 89.706C42.2504 89.398 41.9004 88.9873 41.6577 88.474C41.4244 87.9513 41.3077 87.3773 41.3077 86.752C41.3077 86.108 41.4291 85.5107 41.6717 84.96C41.9237 84.4093 42.2877 83.966 42.7637 83.63C43.2397 83.2847 43.8184 83.112 44.4997 83.112C45.3211 83.112 45.9604 83.3593 46.4177 83.854C46.8844 84.3393 47.1177 84.9693 47.1177 85.744C47.1177 85.8373 47.1131 85.9213 47.1037 85.996C47.1037 86.0613 47.0991 86.1173 47.0897 86.164L42.6797 86.122C42.6797 86.1593 42.6797 86.192 42.6797 86.22C42.6797 87.1347 42.8897 87.8533 43.3097 88.376C43.7297 88.8987 44.3177 89.16 45.0737 89.16C45.7084 89.16 46.3337 88.9547 46.9497 88.544C47.0431 88.656 47.1131 88.7633 47.1597 88.866C46.3664 89.734 45.4424 90.168 44.3877 90.168ZM42.7217 85.604L45.6197 85.548C45.6291 85.5293 45.6337 85.506 45.6337 85.478C45.6337 85.4407 45.6337 85.4173 45.6337 85.408C45.6337 84.904 45.5217 84.484 45.2977 84.148C45.0831 83.812 44.7611 83.644 44.3317 83.644C43.9304 83.644 43.5804 83.8073 43.2817 84.134C42.9831 84.4607 42.7964 84.9507 42.7217 85.604ZM52.2921 87.018H48.5961C48.5868 86.654 48.5868 86.29 48.5961 85.926H52.2921C52.3108 86.2807 52.3108 86.6447 52.2921 87.018ZM61.6237 90.098L55.3937 81.922V87.914C55.3937 88.2687 55.403 88.544 55.4217 88.74C55.4404 88.9267 55.4964 89.0713 55.5897 89.174C55.683 89.2673 55.8277 89.3467 56.0237 89.412C56.2197 89.4773 56.4997 89.5287 56.8637 89.566C56.8824 89.7153 56.8824 89.8647 56.8637 90.014C56.5837 90.014 56.271 90.0093 55.9257 90C55.5897 89.9907 55.305 89.986 55.0717 89.986C54.8384 89.986 54.549 89.9907 54.2037 90C53.8677 90.0093 53.5644 90.014 53.2937 90.014C53.2657 89.874 53.2657 89.7247 53.2937 89.566C53.6297 89.5193 53.891 89.4773 54.0777 89.44C54.2644 89.3933 54.3997 89.328 54.4837 89.244C54.5677 89.1507 54.619 89.0153 54.6377 88.838C54.6657 88.6607 54.6797 88.4133 54.6797 88.096V82.356C54.6797 81.9827 54.6657 81.6887 54.6377 81.474C54.619 81.2593 54.5584 81.1007 54.4557 80.998C54.3624 80.886 54.213 80.8067 54.0077 80.76C53.8117 80.704 53.5364 80.6573 53.1817 80.62C53.1724 80.48 53.1724 80.3353 53.1817 80.186C53.471 80.186 53.779 80.1907 54.1057 80.2C54.4324 80.2093 54.759 80.214 55.0857 80.214C55.1324 80.214 55.2584 80.214 55.4637 80.214C55.6784 80.214 55.865 80.2093 56.0237 80.2L61.7077 87.676V82.3C61.7077 81.9453 61.6984 81.67 61.6797 81.474C61.6704 81.278 61.6144 81.1333 61.5117 81.04C61.3157 80.8347 60.8444 80.704 60.0977 80.648C60.0697 80.4893 60.0697 80.34 60.0977 80.2C60.275 80.2 60.485 80.2047 60.7277 80.214C60.9797 80.214 61.2224 80.2187 61.4557 80.228C61.689 80.228 61.8804 80.228 62.0297 80.228C62.263 80.228 62.5524 80.2233 62.8977 80.214C63.243 80.2047 63.551 80.2 63.8217 80.2C63.8404 80.34 63.8404 80.4847 63.8217 80.634C63.3737 80.69 63.0517 80.7553 62.8557 80.83C62.6597 80.8953 62.5384 81.0213 62.4917 81.208C62.445 81.3947 62.4217 81.698 62.4217 82.118V90.028C62.3284 90.0467 62.2024 90.0607 62.0437 90.07C61.885 90.0887 61.745 90.098 61.6237 90.098ZM67.9093 90.014C67.6479 90.014 67.3773 90.0093 67.0973 90C66.8173 89.9907 66.5139 89.986 66.1873 89.986C65.8886 89.986 65.5853 89.9907 65.2773 90C64.9786 90.0093 64.6893 90.014 64.4093 90.014C64.3813 89.8647 64.3813 89.72 64.4093 89.58C64.7266 89.5613 64.9599 89.5333 65.1093 89.496C65.2586 89.4493 65.3566 89.356 65.4033 89.216C65.4499 89.076 65.4733 88.852 65.4733 88.544V85.408C65.4733 85.044 65.4593 84.7733 65.4313 84.596C65.4033 84.4187 65.3146 84.2973 65.1653 84.232C65.0252 84.1573 64.7779 84.0967 64.4233 84.05C64.3953 83.9193 64.3953 83.798 64.4233 83.686C64.8339 83.6113 65.2259 83.518 65.5993 83.406C65.9726 83.294 66.3319 83.1727 66.6773 83.042L66.9153 83.126C66.9059 83.4153 66.8966 83.686 66.8873 83.938C66.8873 84.19 66.8873 84.428 66.8873 84.652V88.404C66.8873 88.768 66.9059 89.0293 66.9433 89.188C66.9899 89.3467 67.0833 89.4493 67.2233 89.496C67.3726 89.5333 67.6013 89.5613 67.9093 89.58C67.9373 89.72 67.9373 89.8647 67.9093 90.014ZM65.1093 80.662C65.1093 80.3913 65.2026 80.1627 65.3893 79.976C65.5853 79.7893 65.8186 79.696 66.0892 79.696C66.3506 79.696 66.5746 79.7893 66.7613 79.976C66.9573 80.1627 67.0553 80.3867 67.0553 80.648C67.0553 80.8907 66.9619 81.1147 66.7753 81.32C66.5886 81.516 66.3506 81.614 66.0613 81.614C65.7999 81.614 65.5759 81.5207 65.3893 81.334C65.2026 81.1473 65.1093 80.9233 65.1093 80.662ZM72.9612 90.014C72.9425 89.8647 72.9425 89.72 72.9612 89.58C73.2505 89.5613 73.4652 89.5333 73.6052 89.496C73.7452 89.4493 73.8385 89.356 73.8852 89.216C73.9318 89.076 73.9552 88.852 73.9552 88.544V85.716C73.9552 85.156 73.8665 84.7407 73.6892 84.47C73.5212 84.19 73.1805 84.05 72.6672 84.05C72.3965 84.05 72.1352 84.1013 71.8832 84.204C71.6312 84.2973 71.3558 84.4793 71.0572 84.75V88.404C71.0572 88.768 71.0758 89.0293 71.1132 89.188C71.1598 89.3467 71.2532 89.4493 71.3932 89.496C71.5332 89.5333 71.7525 89.5613 72.0512 89.58C72.0698 89.72 72.0698 89.8647 72.0512 90.014C71.7898 90.014 71.5145 90.0093 71.2252 90C70.9452 89.9907 70.6418 89.986 70.3152 89.986C70.0165 89.986 69.7225 89.9907 69.4332 90C69.1438 90.0093 68.8592 90.014 68.5792 90.014C68.5512 89.8647 68.5512 89.72 68.5792 89.58C68.8965 89.5613 69.1298 89.5333 69.2792 89.496C69.4285 89.4493 69.5265 89.356 69.5732 89.216C69.6198 89.076 69.6432 88.852 69.6432 88.544V85.408C69.6432 85.044 69.6245 84.7733 69.5872 84.596C69.5592 84.4187 69.4705 84.2973 69.3212 84.232C69.1812 84.1573 68.9385 84.0967 68.5932 84.05C68.5652 83.9193 68.5652 83.798 68.5932 83.686C69.3958 83.5273 70.1332 83.3127 70.8052 83.042L71.0432 83.126V84.176C71.4725 83.784 71.8925 83.5087 72.3032 83.35C72.7138 83.1913 73.1058 83.112 73.4792 83.112C74.0952 83.112 74.5665 83.294 74.8932 83.658C75.2198 84.022 75.3832 84.5447 75.3832 85.226V88.404C75.3832 88.768 75.4018 89.0293 75.4392 89.188C75.4858 89.3467 75.5792 89.4493 75.7192 89.496C75.8592 89.5333 76.0832 89.5613 76.3912 89.58C76.4098 89.72 76.4098 89.8647 76.3912 90.014C76.1112 90.014 75.8358 90.0093 75.5652 90C75.3038 89.9907 74.9958 89.986 74.6412 89.986C74.2958 89.986 73.9925 89.9907 73.7312 90C73.4792 90.0093 73.2225 90.014 72.9612 90.014ZM79.1707 83.042L79.4087 83.126C79.3994 83.3873 79.3901 83.644 79.3807 83.896C79.3807 84.148 79.3807 84.4047 79.3807 84.666C79.3807 84.7407 79.3807 84.9273 79.3807 85.226C79.3807 85.5247 79.3807 85.8747 79.3807 86.276C79.3901 86.6773 79.3947 87.088 79.3947 87.508C79.4041 87.9187 79.4087 88.2873 79.4087 88.614C79.4087 88.9313 79.4087 89.1553 79.4087 89.286C79.4087 89.9207 79.3807 90.4433 79.3247 90.854C79.2687 91.2647 79.1801 91.6007 79.0587 91.862C78.9374 92.1327 78.7694 92.38 78.5547 92.604C77.9574 93.248 77.3041 93.57 76.5947 93.57C76.2214 93.57 75.9601 93.4907 75.8107 93.332C75.6521 93.1827 75.5727 93.024 75.5727 92.856C75.5727 92.688 75.6381 92.5387 75.7687 92.408C75.8994 92.2773 76.0907 92.212 76.3427 92.212C76.5481 92.212 76.7394 92.2633 76.9167 92.366C77.1034 92.478 77.2527 92.646 77.3647 92.87C77.5234 92.7953 77.6447 92.6553 77.7287 92.45C77.8127 92.254 77.8687 92.0253 77.8967 91.764C77.9341 91.5027 77.9574 91.2507 77.9667 91.008C77.9761 90.7653 77.9807 90.5647 77.9807 90.406C77.9807 90.21 77.9807 89.9393 77.9807 89.594C77.9807 89.2487 77.9807 88.8707 77.9807 88.46C77.9807 88.04 77.9761 87.6293 77.9667 87.228C77.9667 86.8173 77.9667 86.4487 77.9667 86.122C77.9667 85.7953 77.9667 85.5573 77.9667 85.408C77.9667 85.044 77.9481 84.7733 77.9107 84.596C77.8827 84.4187 77.7941 84.2973 77.6447 84.232C77.5047 84.1573 77.2621 84.0967 76.9167 84.05C76.8887 83.9193 76.8887 83.798 76.9167 83.686C77.3087 83.6113 77.6867 83.5227 78.0507 83.42C78.4241 83.3173 78.7974 83.1913 79.1707 83.042ZM77.6027 80.662C77.6027 80.3913 77.6961 80.1627 77.8827 79.976C78.0787 79.7893 78.3121 79.696 78.5827 79.696C78.8441 79.696 79.0681 79.7893 79.2547 79.976C79.4507 80.1627 79.5487 80.3867 79.5487 80.648C79.5487 80.8907 79.4554 81.1147 79.2687 81.32C79.0821 81.516 78.8441 81.614 78.5547 81.614C78.2934 81.614 78.0694 81.5207 77.8827 81.334C77.6961 81.1473 77.6027 80.9233 77.6027 80.662ZM85.9499 90.14C85.3339 90.14 84.9466 89.832 84.7879 89.216C84.1252 89.8507 83.4486 90.168 82.7579 90.168C82.2819 90.168 81.8759 90.028 81.5399 89.748C81.2132 89.4587 81.0499 89.062 81.0499 88.558C81.0499 87.326 82.3052 86.5513 84.8159 86.234C84.8159 86.01 84.8159 85.7813 84.8159 85.548C84.8252 85.3147 84.8299 85.0673 84.8299 84.806C84.8299 84.4793 84.7086 84.2273 84.4659 84.05C84.2326 83.8633 83.9479 83.77 83.6119 83.77C83.3692 83.77 83.1639 83.8073 82.9959 83.882C82.9959 84.0967 82.9492 84.316 82.8559 84.54C82.7626 84.764 82.6319 84.9553 82.4639 85.114C82.3052 85.2633 82.1092 85.338 81.8759 85.338C81.6706 85.338 81.5072 85.282 81.3859 85.17C81.2739 85.0487 81.2179 84.904 81.2179 84.736C81.2179 84.512 81.3206 84.302 81.5259 84.106C81.7406 83.9007 82.0112 83.728 82.3379 83.588C82.6646 83.4387 83.0052 83.322 83.3599 83.238C83.7146 83.154 84.0319 83.112 84.3119 83.112C84.6572 83.112 84.9746 83.1773 85.2639 83.308C85.5626 83.4293 85.8006 83.616 85.9779 83.868C86.1646 84.1107 86.2579 84.414 86.2579 84.778C86.2579 85.002 86.2532 85.296 86.2439 85.66C86.2346 86.0147 86.2252 86.3973 86.2159 86.808C86.2159 87.2093 86.2112 87.592 86.2019 87.956C86.1926 88.32 86.1879 88.614 86.1879 88.838C86.1879 89.1367 86.3186 89.286 86.5799 89.286C86.7479 89.286 87.0046 89.23 87.3499 89.118C87.3872 89.1647 87.4106 89.216 87.4199 89.272C87.4386 89.328 87.4526 89.3793 87.4619 89.426C87.2286 89.678 86.9812 89.86 86.7199 89.972C86.4679 90.084 86.2112 90.14 85.9499 90.14ZM84.7879 88.838L84.8159 86.738C83.9572 86.85 83.3646 87.032 83.0379 87.284C82.7206 87.536 82.5619 87.858 82.5619 88.25C82.5619 88.5767 82.6459 88.8287 82.8139 89.006C82.9912 89.174 83.2106 89.258 83.4719 89.258C83.6399 89.258 83.8266 89.2207 84.0319 89.146C84.2466 89.0713 84.4986 88.9687 84.7879 88.838Z" fill="black"/>
</g>
<line opacity="0.7" x1="36.1857" y1="33.5358" x2="51.1857" y2="39.5358" stroke="#927D73"/>
<path d="M38 49.8554C38 48.4675 39.3791 47.5015 40.6835 47.9758L47.6835 50.5213C48.4739 50.8087 49 51.5598 49 52.4009V59.3815C49 60.7002 47.746 61.658 46.4738 61.311L39.4738 59.4019C38.6036 59.1646 38 58.3743 38 57.4724V49.8554Z" fill="#AD735A"/>
</g>
<defs>
<filter id="filter0_d_3_2" x="0" y="0" width="108" height="108" filterUnits="userSpaceOnUse" color-interpolation-filters="sRGB">
<feFlood flood-opacity="0" result="BackgroundImageFix"/>
<feColorMatrix in="SourceAlpha" type="matrix" values="0 0 0 0 0 0 0 0 0 0 0 0 0 0 0 0 0 0 127 0" result="hardAlpha"/>
<feOffset dy="4"/>
<feGaussianBlur stdDeviation="2"/>
<feComposite in2="hardAlpha" operator="out"/>
<feColorMatrix type="matrix" values="0 0 0 0 0 0 0 0 0 0 0 0 0 0 0 0 0 0 0.25 0"/>
<feBlend mode="normal" in2="BackgroundImageFix" result="effect1_dropShadow_3_2"/>
<feBlend mode="normal" in="SourceGraphic" in2="effect1_dropShadow_3_2" result="shape"/>
</filter>
<filter id="filter1_d_3_2" x="29" y="11" width="49" height="70" filterUnits="userSpaceOnUse" color-interpolation-filters="sRGB">
<feFlood flood-opacity="0" result="BackgroundImageFix"/>
<feColorMatrix in="SourceAlpha" type="matrix" values="0 0 0 0 0 0 0 0 0 0 0 0 0 0 0 0 0 0 127 0" result="hardAlpha"/>
<feOffset dy="4"/>
<feGaussianBlur stdDeviation="2"/>
<feComposite in2="hardAlpha" operator="out"/>
<feColorMatrix type="matrix" values="0 0 0 0 0 0 0 0 0 0 0 0 0 0 0 0 0 0 0.25 0"/>
<feBlend mode="normal" in2="BackgroundImageFix" result="effect1_dropShadow_3_2"/>
<feBlend mode="normal" in="SourceGraphic" in2="effect1_dropShadow_3_2" result="shape"/>
</filter>
<filter id="filter2_d_3_2" x="20.392" y="79.43" width="71.0699" height="22.14" filterUnits="userSpaceOnUse" color-interpolation-filters="sRGB">
<feFlood flood-opacity="0" result="BackgroundImageFix"/>
<feColorMatrix in="SourceAlpha" type="matrix" values="0 0 0 0 0 0 0 0 0 0 0 0 0 0 0 0 0 0 127 0" result="hardAlpha"/>
<feOffset dy="4"/>
<feGaussianBlur stdDeviation="2"/>
<feComposite in2="hardAlpha" operator="out"/>
<feColorMatrix type="matrix" values="0 0 0 0 0 0 0 0 0 0 0 0 0 0 0 0 0 0 0.25 0"/>
<feBlend mode="normal" in2="BackgroundImageFix" result="effect1_dropShadow_3_2"/>
<feBlend mode="normal" in="SourceGraphic" in2="effect1_dropShadow_3_2" result="shape"/>
</filter>
<clipPath id="clip0_3_2">
<rect width="100" height="100" fill="white" transform="translate(4)"/>
</clipPath>
</defs>
</svg>
